<svg width="1728" height="1118" viewBox="0 0 1728 1118" fill="none" xmlns="http://www.w3.org/2000/svg">
<rect x="-0.0300293" y="0.5" width="1728" height="1117" fill="#CB367C"/>
<line x1="182.988" y1="1.5" x2="182.988" y2="1118.5" stroke="#E6D31F" stroke-width="4"/>
<line x1="365.772" y1="1.5" x2="365.772" y2="1118.5" stroke="#E6D31F" stroke-width="4"/>
<line x1="548.556" y1="1.5" x2="548.556" y2="1118.5" stroke="#E6D31F" stroke-width="4"/>
<line x1="731.34" y1="1.5" x2="731.34" y2="1118.5" stroke="#E6D31F" stroke-width="4"/>
<line x1="914.124" y1="1.5" x2="914.123" y2="1118.5" stroke="#E6D31F" stroke-width="4"/>
<line x1="1096.91" y1="1.5" x2="1096.91" y2="1118.5" stroke="#E6D31F" stroke-width="4"/>
<line x1="1279.69" y1="1.5" x2="1279.69" y2="1118.5" stroke="#E6D31F" stroke-width="4"/>
<line x1="1462.48" y1="1.5" x2="1462.48" y2="1118.5" stroke="#E6D31F" stroke-width="4"/>
<line x1="1645.26" y1="1.5" x2="1645.26" y2="1118.5" stroke="#E6D31F" stroke-width="4"/>
<line x1="91.5967" y1="1.5" x2="91.5966" y2="1118.5" stroke="#E6D31F" stroke-width="4"/>
<line x1="274.38" y1="1.5" x2="274.38" y2="1118.5" stroke="#E6D31F" stroke-width="4"/>
<line x1="457.164" y1="1.5" x2="457.164" y2="1118.5" stroke="#E6D31F" stroke-width="4"/>
<line x1="639.948" y1="1.5" x2="639.948" y2="1118.5" stroke="#E6D31F" stroke-width="4"/>
<line x1="822.732" y1="1.5" x2="822.732" y2="1118.5" stroke="#E6D31F" stroke-width="4"/>
<line x1="1005.52" y1="1.5" x2="1005.52" y2="1118.5" stroke="#E6D31F" stroke-width="4"/>
<line x1="1188.3" y1="1.5" x2="1188.3" y2="1118.5" stroke="#E6D31F" stroke-width="4"/>
<line x1="1371.08" y1="1.5" x2="1371.08" y2="1118.5" stroke="#E6D31F" stroke-width="4"/>
<line x1="1553.87" y1="1.5" x2="1553.87" y2="1118.5" stroke="#E6D31F" stroke-width="4"/>
<path d="M-0.833496 997.113H1728" stroke="#E6D31F" stroke-width="4"/>
<path d="M-0.833496 1087.5H1728" stroke="#E6D31F" stroke-width="4"/>
<path d="M-0.833496 454.075H1728" stroke="#E6D31F" stroke-width="4"/>
<path d="M-0.833496 815.981H1728" stroke="#E6D31F" stroke-width="4"/>
<path d="M-0.833496 272.942H1728" stroke="#E6D31F" stroke-width="4"/>
<path d="M-0.833496 906.727H1728" stroke="#E6D31F" stroke-width="4"/>
<path d="M-0.833496 363.688H1728" stroke="#E6D31F" stroke-width="4"/>
<path d="M-0.833496 725.594H1728" stroke="#E6D31F" stroke-width="4"/>
<path d="M-0.833496 182.555H1728" stroke="#E6D31F" stroke-width="4"/>
<path d="M-0.833496 544.462H1728" stroke="#E6D31F" stroke-width="4"/>
<path d="M-0.833496 1.4231H1728" stroke="#E6D31F" stroke-width="4"/>
<path d="M-0.833496 635.207H1728" stroke="#E6D31F" stroke-width="4"/>
<path d="M-0.833496 92.1687H1728" stroke="#E6D31F" stroke-width="4"/>
</svg>
