<svg xmlns="http://www.w3.org/2000/svg" viewBox="0 0 804.08 337.66"><defs><style>.cls-1{fill:#fff;}</style></defs><g id="Capa_2" data-name="Capa 2"><g id="Capa_1-2" data-name="Capa 1"><path d="M595.67,243.92s-83.93-66.95,11-80.85c34.92-5.12-30.82,0-30.82,0l-120.47-4.69L362,169.7l-26.38,9.88,32,36.09Z"/><path d="M802.43,95.55s-.89-15.3-7.15-18.38c-3.06-1.5-11.09-3-11.09-3a30.22,30.22,0,0,0-12.85-16.31,29.37,29.37,0,0,0-15.77-4.72,28.38,28.38,0,0,0-9.78,1.78,32.92,32.92,0,0,0-11.33-2,47.2,47.2,0,0,0-15.52,3,56.56,56.56,0,0,0-6.9,3,67.71,67.71,0,0,0-8.49,5.17,32,32,0,0,0-4.27-4.19,31.19,31.19,0,0,0-19.7-7,31.66,31.66,0,0,0-7.44.88,29.6,29.6,0,0,0-2.84-2,33,33,0,0,0-17.9-5.62c-9.36,0-17.78,4.45-23.58,12.33a39.66,39.66,0,0,0-20.19-5.32,45.73,45.73,0,0,0-5.07.28l-.16,0q1.26-2,2.5-4c8.5-13.62,5.55-29.18-7.33-38.73-6.71-5-13.69-7.48-20.76-7.48-7.39,0-18.06,2.69-27,15.52C542.06,30,535,41.56,528.08,52.77l-.31.51h-.83a36.64,36.64,0,0,0-11,1.75,78.89,78.89,0,0,0-18.31,8.14c-.57.36-1.14.73-1.69,1.1a31.11,31.11,0,0,0-8.55-7.12,29.41,29.41,0,0,0-14.76-4,28.21,28.21,0,0,0-9.37,1.6,30.85,30.85,0,0,0-9.43-1.65c.68-2,1.31-4.12,1.92-6.24C460.22,31,454.21,16.1,439.64,7c-6.32-3.94-12.47-5.85-18.8-5.85-8.13,0-15.83,3.19-22.86,9.48a112.17,112.17,0,0,0-17.54,19.41,242.07,242.07,0,0,0-15.29,25.14A31,31,0,0,0,354,53a27.27,27.27,0,0,0-16,5.13c-.55-.34-1.11-.66-1.69-1A32.36,32.36,0,0,0,321,53.14a29,29,0,0,0-20.72,8.79,38.07,38.07,0,0,0-24.62-8.86h-.43c.66-1.93,1.28-3.92,1.88-5.94,4.72-15.89-1.25-30.86-15.95-40-6.26-3.91-12.39-5.81-18.74-5.81-7.48,0-14.57,2.63-21.66,8A62.73,62.73,0,0,0,211,18.47,198.8,198.8,0,0,0,186.64,54.6,27.29,27.29,0,0,0,177.3,53a28.05,28.05,0,0,0-10.46,2A32.73,32.73,0,0,0,159,53.15c.23-1.16.44-2.34.64-3.51,2.06-12.52-.76-24.42-8-33.53-7.37-9.34-18.73-15-32-15.95-1.48-.11-3-.16-4.48-.16C104,0,93,2.91,81.3,8.89,53.89,23,31.88,44.71,15.9,73.52,3.56,95.76-1.52,116.9.39,138.16c2.5,27.89,22.57,49.27,49.94,53.17a85.57,85.57,0,0,0,12.07.88c19.36,0,37.08-6.84,52.84-20.35a35,35,0,0,0,13,2.51,38.07,38.07,0,0,0,18.71-5.06,35.18,35.18,0,0,0,18.17,5,39.75,39.75,0,0,0,18.33-4.68,36.88,36.88,0,0,0,18.66,4.79,49.46,49.46,0,0,0,8.28-.73,55.42,55.42,0,0,0,20.12-7.63,47.86,47.86,0,0,0,25.92,8.21c.81,0,1.62,0,2.42,0a62.68,62.68,0,0,0,28.26-6.69,36.29,36.29,0,0,0,21.17,6.68,40.85,40.85,0,0,0,18.28-4.42,35,35,0,0,0,17.17,4.46A39.2,39.2,0,0,0,362,169.7a35.57,35.57,0,0,0,18.2,4.75,47.52,47.52,0,0,0,8.72-.85,61.43,61.43,0,0,0,15.19-5,35.09,35.09,0,0,0,19.29,5.85,38.85,38.85,0,0,0,18.43-4.81,35.64,35.64,0,0,0,17.92,4.75,38.42,38.42,0,0,0,10.73-1.56,48.92,48.92,0,0,0,9-3.66,36.1,36.1,0,0,0,18.78,5.19,40.19,40.19,0,0,0,18.57-4.64,36.87,36.87,0,0,0,18.1,4.62,42.84,42.84,0,0,0,22.51-6.61,35.76,35.76,0,0,0,21.39,6.92,48.42,48.42,0,0,0,16.44-3.17,35.71,35.71,0,0,0,13.8,2.79c7.49,0,14.71-2.31,22.07-7.06a79.48,79.48,0,0,0,8.57-6.29,38.31,38.31,0,0,0,29.07,13.57,39.72,39.72,0,0,0,19.12-5,34.93,34.93,0,0,0,18,5,38.62,38.62,0,0,0,17.18-4.15c.65-.33,1.28-.66,1.9-1a35.21,35.21,0,0,0,18.47,5.3,39.37,39.37,0,0,0,21.74-6.89c18.83-12.33,31.64-31.32,38.09-56.43A27.18,27.18,0,0,0,802.43,95.55Z"/><path d="M241.41,337.66c-6.58,0-11.8-2.89-14.6-4.44-21.6-12-19.65-29.16-14.21-41.46,8.7-19.67,17.53-39.58,26.24-59.18a34.18,34.18,0,0,1-19.38-30.68c-.11-11.33,3.86-22.16,11.8-32.19A65.4,65.4,0,0,1,265.67,147a99.15,99.15,0,0,1,26.63-3.73,96.41,96.41,0,0,1,35.52,6.88c27.47,10.87,40.12,38,30.77,65.87-8.24,24.57-26.08,42.19-53.07,52.44a45.35,45.35,0,0,0,6.15,9.4,29.48,29.48,0,0,1,9.61-1.69,21.15,21.15,0,0,1,16.49,7.39,27.52,27.52,0,0,1,5.74,22.72c-3.83,18.17-20.54,31.36-39.74,31.36h0a40.22,40.22,0,0,1-17.8-4.15,54.08,54.08,0,0,1-19.85-17.09l-2.55,5.38C258.53,332.3,251.08,337.66,241.41,337.66Z"/><path d="M354.42,311.88a54.48,54.48,0,0,1-28.71-8.21c-12.47-7.6-19.89-20.05-20.9-35.05-2.23-33.07,19.7-64.45,49.93-71.43A54.22,54.22,0,0,1,367,195.82h1.36a26.86,26.86,0,0,1,2.72-7.52C376,179.21,385.86,176,392.85,176H393a32.94,32.94,0,0,1,8.67,1.33,100.15,100.15,0,0,1,21.17-24.63,31.79,31.79,0,0,1,20.86-7.91c16.12,0,29.66,12.43,32.2,29.56A19.8,19.8,0,0,1,471,190.59l-.13.15a24.3,24.3,0,0,1,2.38,5c.68,0,1.36-.07,2-.07a27.8,27.8,0,0,1,18.29,6.77,29.18,29.18,0,0,1,3.39,3.48c1.12-1,2.29-2,3.51-2.94,6.11-4.74,12-7.05,18.1-7.05a22.5,22.5,0,0,1,5.79.76h0a5.77,5.77,0,0,0,.69,0c1.05,0,2.56-.16,4.15-.32s3.52-.37,5.56-.47c.76,0,1.5,0,2.22,0,16.75,0,29.85,9.59,34.83,24.41.54,0,1.09-.06,1.64-.06a19.72,19.72,0,0,1,5.2.69l1.78.48A19.84,19.84,0,0,1,595,238.55c0,.16.06.33.08.49a28.47,28.47,0,0,1,0,11.8c-5.48,23.72-17.63,41.87-36.11,54-6.8,4.44-13.43,6.6-20.27,6.6a34,34,0,0,1-14.11-3.19,50.12,50.12,0,0,1-17,3.41,31.92,31.92,0,0,1-21-7.54c-7.2,5-14.67,7.47-22.24,7.47a34.93,34.93,0,0,1-15.81-3.83,36.23,36.23,0,0,1-13.1-11c-1.54,1.38-3.18,2.76-4.94,4.13-9.2,7.17-18.46,10.8-27.54,10.8a33.83,33.83,0,0,1-20.45-7,68.3,68.3,0,0,1-9,3.95A57.1,57.1,0,0,1,354.42,311.88Z"/><path class="cls-1" d="M456.29,177.24c-7.36-.39-14.91,6.82-18.85,17.76,3.38.79,6.76,1.45,10.07,2.38,6.77,1.91,8.45,5,6.58,11.72-.14.48-.6,1.15-.43,1.38,4.84,6.61-1,11.05-3.22,16.23-.31.73-.52,1.5-1.27,3.72,2.87-1.38,4.8-2,6.38-3.12,4.08-2.89,7.92-6.11,12-9,4.7-3.32,9.78-3.66,13-.87,4.13,3.59,3.36,8,1.52,12.38-4.12,9.82-8.36,19.59-12.45,29.43a17.38,17.38,0,0,0-1.56,6.26c0,2.12.9,4.24,1.41,6.36,2.15-.54,5.25-.36,6.29-1.74,6.17-8.17,12.75-16.24,17.48-25.24,5.18-9.87,10.53-19.29,19.42-26.2,1.87-1.45,4.75-3.28,6.59-2.79,5.64,1.5,11,.16,16.49-.11,11-.54,17.93,6.13,18.38,17.23.51,12.3-4.16,23.11-10.35,33.39-.77,1.28-1.59,2.53-2.35,3.82a4.1,4.1,0,0,0-.16,1.26c4.19,2,7.55-.08,10-2.93,5.15-6.09,9.79-12.6,14.67-18.92,2.48-3.21,5-6.36,7.55-9.53l1.81.49c.18,1.93.88,4,.47,5.76-4,17.34-12.51,31.92-27.64,41.81-8,5.21-13.44,4.29-21.8-2.14-21.24,9.57-26.7,7.84-36.5-10.53-3.83,3.29-7.9,6.94-12.13,10.39-6,4.92-12.83,7.84-20.3,4.09-7.26-3.65-9.93-10.93-8.61-18.24,1.69-9.38,5.23-18.43,8.06-27.59a46.66,46.66,0,0,1,2.49-5.35c-4.76,1.86-8.82,3.16-12.57,5.05-1.41.71-2.29,2.71-3.15,4.26-4.78,8.54-9.08,17.38-14.35,25.59a48,48,0,0,1-11,11.43c-13.57,10.58-23.82,8.34-31.47-5.88-6.61,3.6-12.89,8.12-19.88,10.58A35,35,0,0,1,336,286.72c-7.22-4.4-10.86-11.07-11.43-19.43-1.56-23.13,14-46,34.6-50.76a35,35,0,0,1,8.41-.86c9.05.17,14.24,6.23,13.76,15.34-.75,14.2-19.12,32.83-37.46,30.2-.87,5.52,2.23,10,8.51,11.93a24.12,24.12,0,0,0,21.5-3.2c8-5.48,13.79-12.61,16.78-22.22,3.75-12,8.43-23.75,12.77-35.76-3.26-1.1-7-2-10.36-3.58-4.75-2.26-6.69-6.79-4.62-10.62.62-1.15,2.89-1.95,4.39-1.94,2.27,0,4.51,1.07,6.81,1.35,7.91,1,13.87-.48,18.44-8.66a79,79,0,0,1,17.63-20.75C443.93,160.77,454.64,166.08,456.29,177.24Zm-14.21,32.84c-4.65.42-8.25.5-11.74,1.18-1.51.29-3.51,1.52-4,2.84-6.45,15.64-12.89,31.3-18.77,47.16-1.14,3.09.14,7.09.3,10.66,3.47-1.64,8.19-2.38,10.18-5.11,5.84-8,10.61-16.74,15.73-25.24a3.06,3.06,0,0,0,.19-2.37c-3.05-7.51.08-14,3.33-20.42C438.56,216.18,440.07,213.68,442.08,210.08Zm-92.4,40.16c7.95.1,16.07-7.52,16.53-15,.3-4.73-2.41-6.86-6.86-5.11-6.82,2.68-10.49,8.18-13,14.78C344.73,249,346.16,250.42,349.68,250.24Zm181.63,7.4c5-8.06,8.69-16.19,9.36-25.47a9.4,9.4,0,0,0-.68-3.9c-1.47-3.89-4.42-4.26-7.07-1C527.86,233.55,526.82,249.68,531.31,257.64Zm-13.55,13.67c-1.3-9.95-2.42-18.48-3.54-27l-1.23-.38c-2.44,5.9-5.45,11.66-7,17.78-.73,2.83.36,7.57,2.42,9.27S514.62,271.31,517.76,271.31Z"/><path class="cls-1" d="M279.7,255c4,14.83,9.29,28.37,20,39.05,5.58,5.57,11.13,6,17.81,2.79,1.53-.73,4.48-1.26,5.13-.49a7.72,7.72,0,0,1,1.46,5.8c-2.63,12.44-17.61,19.33-29.31,13.53-9.67-4.8-15-13.53-19.35-22.81-3.43-7.34-6-15.07-9.22-23.26-.85,1.65-1.68,3.13-2.39,4.66-6.06,13-12,26-18.18,38.94-2.62,5.5-3.76,5.69-9.21,2.66-8.1-4.49-9.4-7.7-5.69-16.07q25.35-57.35,50.88-114.61c.79-1.79,1.51-3.61,2.31-5.54-12.53-1.08-28.68,13.61-28.38,25.45a14.7,14.7,0,0,0,1.27,4.75c1.49,3.83.49,5.47-3.72,5.83-7.17.61-13.73-5.9-13.81-14-.07-7.5,3-14,7.52-19.69a45.8,45.8,0,0,1,24.19-16,76,76,0,0,1,49.51,2.5c17.5,6.92,25.23,23.27,19.25,41.11-7.32,21.84-23.79,34.3-44.84,41.46C290.25,252.73,285.32,253.59,279.7,255ZM281,235.82c16.18-1.65,34-12.57,41.07-24.76,9.05-15.58,1.37-30-17.13-31.48C297,198.06,289.12,216.64,281,235.82Z"/><path class="cls-1" d="M596.76,146c-19.47,10-26.37,8-36.65-10.29-3.63,3.31-7.35,6.79-11.17,10.16-10.11,8.93-24.83,8.23-28.73-6.84-.07-.27-.44-.47-.85-.88-2.69,2.7-5.22,5.59-8.09,8.07-11.62,10-24.77,5.47-27-7.28-.08-.44-.51-.82-1-1.5-3.22,3-6.14,6.13-9.57,8.63a32.33,32.33,0,0,1-9.64,5c-7.63,2.24-14.36-1.43-17.32-8.82-.54-1.34-1-2.7-1.76-4.81-2.78,2.87-5,5.51-7.59,7.76-12.37,10.84-23.07,8.2-28.86-7.2-3.79,2.94-7.27,6.29-11.34,8.62a40.64,40.64,0,0,1-12.46,4.74c-9.49,1.76-14.34-1.29-20.33-11.76-3.18,2.66-6.17,5.49-9.47,7.87-5.43,3.93-11.77,6-17.77,2.49-3.84-2.26-6.39-6.72-9.41-10.06-13.55,17.27-30.93,15.23-35.5-3.64l-4.13,3.56c-8.87,7.69-18.94,12.32-30.92,11.87s-19.55-6.57-23.84-18.19c-2,2.07-3.72,3.92-5.49,5.73-6,6.06-12.73,10.73-21.32,12.18-9.66,1.63-15-1.38-20.79-11.81-2.14,1.9-4.18,3.8-6.31,5.57-13,10.82-23.63,8.33-30.54-8.37-3.08,3.5-5.45,7-8.55,9.59-10.29,8.63-19.64,6.83-26.66-5.38-1.4,1.55-2.67,2.91-3.89,4.31-14.91,17.12-33,26.95-56.33,23.62-17.21-2.46-29-15.4-30.55-32.76-1.67-18.63,3.87-35.61,12.74-51.6C49,60.66,67.2,41.62,91.66,29.06c8.2-4.21,16.92-7,26.41-6.28,13.45,1,21.36,9.88,19.16,23.16-3.6,21.87-15.12,38.92-33.87,50.72-8,5.07-16.8,6.48-25.46.88-5-3.24-7.58-8.68-6.55-13.56.86-4,3.22-5.25,6.28-2.68,5.63,4.72,11.52,4.26,17.19.91a58.17,58.17,0,0,0,26.83-34.14c2.78-9.19-2.08-14-11.23-10.71a72.32,72.32,0,0,0-20,10.84c-21,16.43-36,37.28-43.56,63.08-2.59,8.87-3.56,18-1.08,27.13,3.08,11.3,10.78,16.33,22.46,15.05,11.07-1.21,20.34-6.38,28.21-13.84a213.16,213.16,0,0,0,16.13-17.71c1.63-1.94,2.4-4.69,3.3-7.16,5.23-14.48,13-26.95,26.75-34.92a32.49,32.49,0,0,1,3.11-1.59c10-4.49,14.95-3.41,21.92,5,1.58-1.72,3.11-3.41,4.68-5.08,2.55-2.7,6-3.48,8.43-1,1.9,1.91,3.75,5.77,3.07,8-2.12,7-5.58,13.51-8.27,20.32-2.62,6.65-5.14,13.35-7.21,20.18-.56,1.85.67,4.25,1.08,6.4,2.15-.5,4.85-.35,6.36-1.62,5.89-4.94,10.74-10.61,12.88-18.46,7.88-28.91,20-55.75,39.59-78.81a39,39,0,0,1,6.2-5.77c5.58-4.25,9.22-4.42,14.66-1,5.74,3.58,8.11,7.93,6.21,14.35C249,62,238.5,80.48,218.55,92.17a6.8,6.8,0,0,0-3,3.12c-3.38,9.55-6.76,19.12-9.66,28.84-.66,2.21-.2,6.45,1.13,7.16,1.95,1,5.73.62,7.72-.7,8.72-5.76,15.89-13.22,20.28-22.82,7.18-15.7,18.14-27,35.25-31.33,7.11-1.78,13.83-.23,18.28,6.07,4.33,6.13,2.36,12.28-1,18.28-2.1,3.71-3.47,7.84-5.69,11.48a6.07,6.07,0,0,1-4.67,2.35c-5.86-.42-9.49-7.11-7-12.79,1-2.27,2.71-4.2,3.79-6.43.5-1,.28-2.43.39-3.67-1.25,0-2.95-.43-3.66.21-4.3,3.84-9,7.52-12.37,12.08a44.65,44.65,0,0,0-6.68,13.81c-2.36,7.78,1.33,13.07,9.3,14.48,10.32,1.82,19.6-.9,26.21-8.85,5.9-7.11,10.54-15.29,15.49-23.15,4.16-6.62,7.84-13.54,12-20.18,2.87-4.62,6.44-5.4,11-2.94,4,2.14,5.65,6.08,3.67,10.61-2.59,6-5.82,11.6-8.58,17.48-3.1,6.62-6.19,13.26-8.83,20.07-.7,1.83.27,4.31.47,6.49,2.34-.45,5.72-.08,6.82-1.49a163,163,0,0,0,13.71-20c5.46-9.7,9.89-20,15.17-29.76,2.92-5.4,5.6-6,10.61-3.56,3.95,1.9,5.33,5.57,3.28,10.61-3.82,9.41-8.06,18.64-11.93,28a54.39,54.39,0,0,0-3.13,10.5c-.33,1.73.12,4.86,1.1,5.27a6.87,6.87,0,0,0,5.85-.78c6-4.59,11.15-10.11,13.12-17.69a218.08,218.08,0,0,1,32.13-70,91,91,0,0,1,14-15.45c5.34-4.77,9.16-4.63,14.56-1.28,5.74,3.58,8.11,7.79,6.25,14.33-6.1,21.43-16.73,39.81-36.64,51.52a6.88,6.88,0,0,0-3,3.08c-3.42,9.72-6.83,19.46-9.73,29.34-.62,2.13.09,6.09,1.57,7,1.65,1,5.38.37,7.31-.92a59.82,59.82,0,0,0,20.5-22.74c6.09-12,13.34-22.78,25.82-28.84a37,37,0,0,1,10.94-3.16c5.53-.78,7.7.79,12.23,7.48,1.6-1.71,3.17-3.33,4.66-5,2.45-2.74,5.34-3.37,8.52-1.55s4.57,4.89,3.4,8.5-2.68,6.8-4,10.2c-3.9,9.9-8,19.73-11.54,29.75-.69,1.91.61,4.53,1,6.82,2.29-.63,5.51-.51,6.72-2a285,285,0,0,0,18.67-25.15c5.42-8.5,10.59-17.09,19.3-22.54a58,58,0,0,1,13.15-5.74c6.09-1.94,11.1.16,14.61,6.5,3.46-6.49,6.24-12.35,9.61-17.85,7-11.34,13.91-22.72,21.48-33.65,4.84-7,9.44-7.29,15.59-2.74,3.21,2.38,3.86,4.87,1.59,8.5-7.84,12.58-16,25-23,38.05-7.35,13.79-13.47,28.25-20.08,42.43a16.33,16.33,0,0,0-1.66,4.69c-.39,3.14-.4,6.33-.56,9.49,3.08-1.55,7.17-2.33,9.05-4.79,5.31-7,10.5-14.21,14.27-22,4.94-10.24,10.58-19.67,19.68-26.6,2-1.51,5.1-3.14,7.13-2.6,5,1.34,9.6.43,14.51-.11,11.53-1.26,19.14,5.81,19.63,17.47.41,10-2.86,19-7.31,27.7-1.74,3.39-3.81,6.61-6.65,11.47,3.55-.69,6.37-.46,8.06-1.74a37,37,0,0,0,8.24-8.51c3.27-4.8,5.85-10.07,8.72-15.14,2.07-3.65,3.49-7.07,1.84-11.67-.94-2.63,0-6.35,1.14-9.2A89.88,89.88,0,0,1,645.37,73c2.86-4.85,6.66-5.37,11.7-2.15,3.59,2.3,4,5.2,1.32,10-1.3,2.33-2.61,4.65-3.85,7a11.64,11.64,0,0,0-.32,2.7,59.47,59.47,0,0,0,6.32-3.39c4.08-2.89,7.93-6.1,12-8.94s8.41-3.81,12.51-.52,3.43,7.68,1.65,11.9c-3.81,9.06-7.91,18-11.57,27.1a43.2,43.2,0,0,0-2.74,11.09c-.48,4.23,2.27,5.95,6,3.81a19.65,19.65,0,0,0,6.3-5.54c4.9-7.12,9.69-14.33,14-21.83,5.9-10.3,12.84-19.45,23.69-25a34.15,34.15,0,0,1,4.1-1.83c9.46-3.32,13.45-2.13,19.52,6,1.35-1.47,2.7-2.86,4-4.33,2.58-3,5.61-4.32,9.22-2,3.35,2.13,4.56,5.27,3,9.07-2.52,6.15-5.31,12.21-7.74,18.4-2.72,7-5.39,14-7.62,21.09-.59,1.88.52,4.28.84,6.45,2.3-.53,5.21-.37,6.77-1.74a75.19,75.19,0,0,0,9.27-10.38c4.31-5.5,8.27-11.27,12.6-16.75.86-1.09,2.72-1.39,4.12-2.06.33,1.54,1.26,3.23.91,4.59-4.52,17.64-13,32.94-28.54,43.1-10.4,6.81-19.38,2.63-26.24-11.9-.72,1.46-1.09,3.31-2.22,4.31-3.59,3.17-7.1,6.75-11.3,8.84-8.83,4.37-17,.47-20.27-8.86-.42-1.21-.79-2.45-1.25-3.88-3.43,3.2-6.51,6.46-10,9.24-5.77,4.65-12.39,7.16-19.49,3.71-6.92-3.36-8.89-10-9-17.19-.2-10.35,4.28-19.39,8.19-28.57.7-1.65,1.53-3.23,2.77-5.82-8.4,3.65-15.43,6.18-19.05,15.1S635.57,130.5,630,138.31c-2.81,3.93-7,7.13-11.17,9.8C610.68,153.36,604.75,152.58,596.76,146ZM500.35,127c1,1.52,2,4.67,3.44,4.84,2.46.3,5.89-.45,7.6-2.1,9.5-9.23,15.63-20.63,19.25-33.29.57-2-.27-6-1.52-6.54-2.17-.9-5.84-.71-7.72.64C509.25,99.31,503.38,111.88,500.35,127ZM130,126.62c.83,1.53,1.43,4.38,3,5.13s4.73.22,6.4-.91a22.49,22.49,0,0,0,6.91-7c4.65-8.23,8.75-16.76,13.07-25.17,1.61-3.14,2.81-7-.57-8.92-2.08-1.16-6.48-.57-8.51,1C138.73,99.49,132.88,111.76,130,126.62Zm578.34-.29c.85,1.56,1.49,4.63,3.18,5.38s4.93,0,6.8-1.18a18.71,18.71,0,0,0,6.18-6.36c4.69-8.4,9-17,13.35-25.59,1.59-3.12,2.73-7.06-.64-8.93-2.07-1.15-6.46-.47-8.52,1.09C717.21,99.4,711.59,111.63,708.3,126.33Zm-282.95.16c.88,1.53,1.61,4.57,3.3,5.28s4.9-.13,6.8-1.3a17.06,17.06,0,0,0,5.86-6c4.82-8.7,9.48-17.5,13.62-26.53,1-2.27-.1-5.53-.25-8.33-2.92.26-6.6-.53-8.63.95C434.26,99.16,428.68,111.6,425.35,126.49Zm176.74-9.08c.9-1.51,2.12-2.92,2.65-4.56,2.26-7,4.67-14.07,6.2-21.27.39-1.81-2.24-4.26-3.49-6.42-1.8,1.47-4.32,2.57-5.27,4.47C597.71,98.54,598.37,107.82,602.09,117.41Zm-13.82,14c-1.29-10-2.38-18.52-3.48-27l-1.22-.58c-2.48,6.14-5.49,12.15-7.18,18.5-.69,2.64.56,7.31,2.56,8.72C581.12,132.64,585.21,131.45,588.27,131.45ZM249,39C236.61,49.79,230.35,64.5,223.6,78.9,236.21,68.31,244.14,54.68,249,39Zm178.21,0c-12,11.07-18.42,25.76-25.44,40.07C412.06,72.35,426,50.79,427.22,39.07Z"/><path class="cls-1" d="M415.83,205.58a519.93,519.93,0,0,0,99-17.36"/><path class="cls-1" d="M415.83,213.08a533.43,533.43,0,0,0,79.39-12.14q10.83-2.5,21.57-5.49c3.78-1,6.48-5.36,5.23-9.22A7.63,7.63,0,0,0,512.8,181a520.9,520.9,0,0,1-54.1,11.93q-7.76,1.29-15.55,2.34l2-.27q-14.61,1.95-29.31,3.09a8,8,0,0,0-5.3,2.2,7.63,7.63,0,0,0-2.2,5.3c.17,3.81,3.31,7.82,7.5,7.5Z"/></g></g></svg>