<svg width="78" height="15" viewBox="0 0 78 15" fill="none" xmlns="http://www.w3.org/2000/svg">
<path d="M69.0371 14.6228C61.0805 15.7153 60.8317 10.1749 61.6814 4.01721C62.854 0.565237 65.8794 1.16651 69.5083 1.00546C77.9095 -0.0897264 78.0551 5.32983 77.216 11.6271C76.7396 14.5127 72.6634 14.7033 69.0371 14.6228ZM69.9953 3.27635C69.0265 3.37835 64.7015 2.77708 64.7227 5.15534C64.8259 7.28397 63.6031 11.1547 66.1864 12.0835C69.5268 12.1935 73.9948 12.8297 74.2515 10.2447C74.3733 6.7847 75.7735 2.51402 69.9953 3.28173V3.27635ZM8.38089 14.5986C4.10086 14.2309 2.07862 15.5301 0.299911 11.6083C0.228445 8.49191 -1.28822 2.35296 3.24856 1.3571C6.40895 1.20141 16.6101 -0.441358 15.9775 5.09898H12.7588C12.743 2.59456 7.59211 3.66826 5.01933 3.51794C2.10774 4.09238 3.3756 8.36842 3.26179 10.3736C3.87322 13.1196 6.00926 11.9358 7.92826 12.2526C9.48728 12.1747 12.788 12.6821 12.8938 10.2957H16.1442C16.0992 14.8563 12.8806 14.5771 8.38089 14.5986ZM44.2728 14.5476C40.4162 14.2094 37.2506 15.4415 36.6471 11.4553H39.6778C40.0457 13.4068 48.8651 13.7987 48.304 10.7762C48.0128 7.13902 41.8879 9.10928 39.1378 8.27716C35.5248 8.06778 36.205 1.18262 38.9843 1.27657C41.8773 1.47521 50.2812 -0.787639 50.665 4.18364H47.6846C47.5682 2.09796 38.8202 1.96106 39.4078 4.86008C39.6592 8.4758 47.3035 6.25591 49.2013 7.24909C54.1722 10.6286 50.1833 15.7448 44.2728 14.5557V14.5476ZM54.6301 14.2658V1.38126H57.6475V14.2658H54.6301ZM31.3056 14.2658C30.9695 13.7638 30.681 11.5815 29.8128 11.6808L22.8223 11.5976C21.9383 11.4875 21.6365 13.7638 21.3163 14.2658H18.1162L23.4841 1.28731H29.0611L34.5031 14.2658H31.3056ZM25.943 2.93277C25.0087 2.63213 23.4761 8.73617 23.1056 9.17371C22.4306 11.1091 28.1347 9.8743 28.8202 10.2045C30.9377 10.2045 27.2797 4.18902 27.3856 3.424C27.203 2.82004 26.4195 2.93546 25.943 2.93277Z" fill="#3C4045"/>
</svg>
