<svg width="534" height="638" viewBox="0 0 534 638" fill="none" xmlns="http://www.w3.org/2000/svg">
<path d="M139.584 637.5L0.300998 86.4953L533.315 75.5L398.656 637.5H139.584Z" fill="#171717"/>
<g clip-path="url(#clip0_28_155)">
<path d="M532.906 63.8708C532.906 63.8708 532.316 53.7235 528.167 51.6808C526.138 50.6859 520.816 49.6911 520.816 49.6911C519.342 45.192 516.325 41.3599 512.298 38.874C509.183 36.8549 505.556 35.7687 501.844 35.7436C499.631 35.7524 497.436 36.152 495.361 36.9241C492.955 36.0443 490.413 35.5953 487.851 35.5977C484.334 35.6775 480.856 36.3502 477.563 37.5873C475.996 38.1482 474.468 38.8129 472.99 39.577C471.032 40.5804 469.151 41.7265 467.362 43.0058C466.507 41.9931 465.559 41.0628 464.531 40.2269C460.842 37.2224 456.23 35.5827 451.473 35.5844C449.812 35.583 448.156 35.7789 446.541 36.168C445.94 35.6894 445.311 35.2465 444.658 34.8416C441.147 32.4767 437.025 31.182 432.793 31.1143C426.589 31.1143 421.007 34.0656 417.163 39.2918C413.097 36.9408 408.475 35.7225 403.779 35.7635C402.656 35.763 401.535 35.825 400.419 35.9492H400.313C400.869 35.0649 401.422 34.1806 401.97 33.2963C407.604 24.2632 405.649 13.9435 397.111 7.60973C392.663 4.29362 388.036 2.64884 383.35 2.64884C378.451 2.64884 371.378 4.4329 365.452 12.942C360.315 20.3966 355.635 28.0635 351.048 35.4982L350.843 35.8364H350.292C347.817 35.8492 345.358 36.2407 343.001 36.9971C338.742 38.2731 334.664 40.0873 330.864 42.3957C330.486 42.6344 330.108 42.8798 329.743 43.1252C328.153 41.2232 326.233 39.6236 324.076 38.4031C321.105 36.6711 317.73 35.7558 314.292 35.7502C312.177 35.7499 310.076 36.1087 308.081 36.8114C306.067 36.1234 303.958 35.7542 301.83 35.717C302.281 34.3906 302.698 32.9846 303.103 31.5785C306.066 21.0599 302.082 11.1779 292.424 5.14255C288.235 2.52946 284.158 1.2627 279.962 1.2627C274.573 1.2627 269.469 3.37838 264.809 7.55004C260.445 11.3727 256.542 15.6931 253.182 20.4232C249.469 25.7702 246.084 31.3383 243.047 37.0965C240.693 36.1632 238.187 35.673 235.656 35.6507C231.851 35.6397 228.139 36.8303 225.05 39.053C224.685 38.8275 224.314 38.6153 223.93 38.3898C220.818 36.6812 217.331 35.7719 213.781 35.7436C211.219 35.7505 208.684 36.2697 206.325 37.2709C203.967 38.272 201.832 39.7348 200.046 41.5733C195.471 37.7469 189.69 35.6651 183.727 35.6971H183.442C183.879 34.4171 184.29 33.0973 184.688 31.7576C187.816 21.219 183.859 11.2906 174.115 5.22877C169.965 2.63557 165.902 1.37545 161.693 1.37545C156.735 1.37545 152.035 3.11972 147.335 6.68122C144.968 8.46752 142.8 10.5019 140.865 12.7497C134.622 20.121 129.207 28.1566 124.718 36.7119C122.732 35.9996 120.637 35.6405 118.527 35.6507C116.152 35.6458 113.798 36.0961 111.593 36.9772C109.918 36.3556 108.172 35.9435 106.396 35.7502C106.549 34.9809 106.688 34.1983 106.82 33.4223C108.186 25.1188 106.317 17.2264 101.518 11.1845C96.6322 4.99001 89.102 1.23618 80.3057 0.606115C79.3246 0.533161 78.3171 0.5 77.336 0.5C69.9384 0.5 62.6469 2.42997 54.8913 6.39604C36.722 15.7541 22.1323 30.1526 11.5396 49.26C3.35982 64.01 -0.00755847 78.0305 1.25852 92.1306C2.9157 110.628 16.2195 124.808 34.3622 127.394C37.0121 127.777 39.6857 127.972 42.3631 127.978C55.1962 127.978 66.9422 123.441 77.3891 114.481C80.1295 115.58 83.0543 116.145 86.0064 116.146C90.3606 116.117 94.6332 114.96 98.4087 112.79C102.047 114.971 106.212 116.117 110.453 116.106C114.694 116.065 118.862 115 122.603 113.002C126.372 115.139 130.641 116.235 134.973 116.179C136.812 116.172 138.648 116.01 140.461 115.695C145.194 114.896 149.726 113.177 153.798 110.634C158.879 114.073 164.847 115.965 170.98 116.08C171.517 116.08 172.053 116.08 172.584 116.08C179.089 116.088 185.505 114.568 191.316 111.643C195.417 114.55 200.324 116.099 205.349 116.073C209.561 116.052 213.71 115.048 217.467 113.141C220.944 115.089 224.863 116.108 228.848 116.099C233.073 116.083 237.23 115.035 240.959 113.049C244.625 115.163 248.792 116.251 253.023 116.199C254.963 116.189 256.898 116.001 258.803 115.635C262.29 114.974 265.675 113.859 268.872 112.319C272.663 114.836 277.109 116.185 281.659 116.199C285.933 116.166 290.131 115.07 293.876 113.009C297.488 115.089 301.586 116.176 305.754 116.159C308.162 116.152 310.557 115.804 312.867 115.124C314.931 114.515 316.929 113.702 318.833 112.697C322.588 114.964 326.895 116.155 331.281 116.139C335.572 116.12 339.795 115.065 343.591 113.062C347.261 115.097 351.393 116.152 355.589 116.126C360.873 116.082 366.041 114.564 370.51 111.742C374.62 114.757 379.592 116.367 384.689 116.332C388.416 116.269 392.103 115.558 395.586 114.229C398.483 115.447 401.592 116.076 404.734 116.08C409.699 116.08 414.485 114.548 419.363 111.397C421.348 110.135 423.246 108.741 425.044 107.226C427.415 110.03 430.365 112.287 433.692 113.841C437.019 115.395 440.643 116.208 444.314 116.225C448.75 116.206 453.11 115.065 456.988 112.909C460.59 115.078 464.715 116.224 468.92 116.225C472.877 116.201 476.775 115.259 480.308 113.473C480.738 113.254 481.156 113.035 481.567 112.81C485.243 115.095 489.482 116.312 493.81 116.325C498.959 116.258 503.973 114.668 508.221 111.755C520.703 103.578 529.194 90.9832 533.47 74.3298C534.321 70.8645 534.125 67.2245 532.906 63.8708Z" fill="#171717"/>
<path d="M382.945 222.5H117.751L6.44873 108.738L520.603 100.626L382.945 222.5Z" fill="#171717"/>
<path d="M396.574 97.3303C383.668 103.963 379.094 102.636 372.28 90.5057C369.873 92.701 367.408 95.009 364.875 97.2441C358.174 103.167 348.416 102.702 345.831 92.7076C345.785 92.5286 345.54 92.3959 345.268 92.124C343.485 93.9147 341.808 95.8314 339.905 97.4762C332.203 104.108 323.486 101.104 322.008 92.6479C321.955 92.3561 321.67 92.1041 321.345 91.6531C319.21 93.6428 317.275 95.7187 315.001 97.3767C313.073 98.8347 310.913 99.9558 308.611 100.693C303.553 102.178 299.092 99.7444 297.13 94.8432C296.772 93.9545 296.467 93.0525 295.964 91.6531C294.121 93.5566 292.649 95.3075 290.932 96.7997C282.733 103.989 275.64 102.238 271.802 92.0245C269.29 93.9744 266.983 96.1962 264.285 97.7415C261.724 99.2371 258.933 100.299 256.026 100.885C249.735 102.052 246.52 100.03 242.55 93.0857C240.442 94.8498 238.46 96.7268 236.272 98.3052C232.673 100.912 228.47 102.285 224.493 99.9566C221.948 98.4578 220.257 95.4998 218.255 93.2846C209.273 104.738 197.753 103.385 194.724 90.8705L191.986 93.2316C186.106 98.3318 179.431 101.402 171.49 101.104C163.549 100.806 158.531 96.7467 155.687 89.04C154.361 90.4129 153.221 91.6398 152.048 92.8403C148.071 96.8594 143.61 99.9566 137.916 100.918C131.512 101.999 127.973 100.003 124.135 93.0857C122.716 94.3458 121.364 95.6059 119.952 96.7798C111.335 103.956 104.288 102.304 99.7078 91.2287C97.6662 93.5499 96.0952 95.8712 94.0403 97.5889C87.2194 103.313 81.0215 102.119 76.3682 94.0208C75.4402 95.0488 74.5983 95.9508 73.7896 96.8793C63.9063 108.234 51.9149 114.753 36.4502 112.545C25.0422 110.913 17.227 102.331 16.1995 90.8175C15.0926 78.4616 18.7649 67.2001 24.6445 56.5952C33.4806 40.731 45.5448 28.1033 61.7586 19.7732C67.1941 16.981 72.9743 15.1307 79.2649 15.6082C88.1805 16.2714 93.4238 22.1608 91.9655 30.9684C89.5792 45.473 81.9429 56.7809 69.5141 64.607C64.2112 67.9695 58.3779 68.9046 52.6375 65.1906C49.3231 63.0418 47.6129 59.4338 48.2957 56.1973C48.8657 53.5444 50.4301 52.7154 52.4585 54.4199C56.1905 57.5503 60.0948 57.2452 63.8532 55.0234C72.4802 50.0556 78.8529 41.9423 81.638 32.381C83.4808 26.286 80.2592 23.0959 74.194 25.2779C69.4235 26.9596 64.949 29.3861 60.9366 32.4673C47.0163 43.364 37.0733 57.1921 32.062 74.3032C30.3452 80.186 29.7022 86.2412 31.3461 92.2964C33.3878 99.7908 38.4918 103.127 46.2342 102.278C53.5721 101.475 59.7169 98.0466 64.9337 93.0989C68.715 89.3873 72.2846 85.4659 75.6258 81.3533C76.7063 80.0666 77.2167 78.2428 77.8133 76.6046C81.2801 67.0012 86.4306 58.7308 95.545 53.4449C96.2128 53.0567 96.901 52.7047 97.6065 52.3904C104.235 49.4126 107.516 50.1288 112.137 55.7065C113.184 54.5658 114.198 53.4449 115.239 52.3374C116.929 50.5467 119.216 50.0294 120.827 51.6741C122.086 52.9409 123.313 55.5009 122.862 56.9799C121.457 61.6225 119.163 65.94 117.38 70.4566C115.643 74.867 113.973 79.3106 112.601 83.8404C112.229 85.0673 113.045 86.6591 113.317 88.085C114.742 87.7534 116.531 87.8529 117.532 87.0106C121.437 83.7343 124.652 79.9738 126.07 74.7675C131.294 55.5938 139.328 37.7929 152.313 22.499C153.54 21.078 154.918 19.7948 156.423 18.6723C160.122 15.8536 162.535 15.7408 166.141 18.009C169.945 20.3834 171.516 23.2684 170.257 27.5263C166.054 41.6197 159.094 53.876 145.87 61.6291C145 62.0837 144.301 62.8103 143.881 63.6983C141.641 70.0321 139.4 76.3791 137.478 82.8256C137.041 84.2914 137.346 87.1034 138.227 87.5743C139.52 88.2375 142.025 87.9855 143.345 87.11C149.125 83.2899 153.878 78.3423 156.788 71.9753C161.547 61.5628 168.812 54.0684 180.154 51.1966C184.867 50.0161 189.321 51.0441 192.271 55.2224C195.141 59.2879 193.835 63.3667 191.608 67.3461C190.216 69.8066 189.308 72.5457 187.836 74.9598C187.469 75.434 187 75.82 186.465 76.0896C185.929 76.3593 185.34 76.5058 184.741 76.5184C180.856 76.2399 178.45 71.8029 180.101 68.0358C180.763 66.5303 181.897 65.2503 182.613 63.7713C182.944 63.1081 182.798 62.1597 182.871 61.3373C182.043 61.3373 180.916 61.0521 180.445 61.4766C177.595 64.0233 174.479 66.464 172.246 69.4883C170.253 72.2628 168.754 75.3616 167.818 78.6473C166.253 83.8072 168.699 87.3156 173.982 88.2508C180.823 89.4578 186.975 87.6539 191.356 82.3813C195.267 77.6658 198.343 72.2406 201.624 67.0277C204.382 62.6372 206.821 58.0477 209.578 53.6439C211.481 50.5798 213.847 50.0625 216.87 51.694C219.521 53.1133 220.615 55.7264 219.303 58.7308C217.586 62.7101 215.445 66.4242 213.615 70.3239C211.56 74.7144 209.512 79.1182 207.762 83.6348C207.298 84.8485 207.941 86.4932 208.074 87.9391C209.625 87.6406 211.865 87.886 212.594 86.9509C215.949 82.7613 218.986 78.3275 221.682 73.6865C225.302 67.2532 228.238 60.422 231.738 53.949C233.674 50.3676 235.45 49.9697 238.771 51.5879C241.39 52.848 242.304 55.2821 240.945 58.6247C238.413 64.8656 235.603 70.9871 233.037 77.1949C232.113 79.4404 231.418 81.7735 230.963 84.1587C230.744 85.3061 231.042 87.382 231.692 87.6539C232.336 87.8614 233.018 87.9226 233.689 87.8331C234.36 87.7436 235.002 87.5057 235.57 87.1366C239.547 84.0924 242.961 80.4314 244.266 75.4042C248.557 58.7873 255.768 43.067 265.564 28.9787C268.255 25.2187 271.369 21.7805 274.845 18.7319C278.384 15.5684 280.916 15.6612 284.496 17.883C288.301 20.2574 289.872 23.0495 288.639 27.387C284.595 41.5998 277.549 53.7898 264.351 61.5561C263.487 62.007 262.79 62.7229 262.363 63.5989C260.096 70.0454 257.835 76.5051 255.913 83.0578C255.502 84.4704 255.973 87.0968 256.954 87.7003C258.047 88.3635 260.52 87.9457 261.799 87.0901C267.56 83.3274 272.243 78.13 275.388 72.0085C279.425 64.0498 284.231 56.9003 292.503 52.8812C294.798 51.8124 297.244 51.1054 299.755 50.7854C303.421 50.2681 304.859 51.3094 307.862 55.7463C308.923 54.6122 309.963 53.5378 310.951 52.4302C312.575 50.613 314.491 50.1952 316.599 51.4022C318.707 52.6093 319.628 54.6454 318.852 57.0396C318.077 59.4338 317.076 61.5495 316.201 63.8045C313.616 70.3703 310.898 76.8898 308.551 83.5353C308.094 84.802 308.956 86.5397 309.214 88.0585C310.732 87.6406 312.867 87.7202 313.669 86.732C318.097 81.4032 322.228 75.8348 326.045 70.052C329.637 64.4146 333.064 58.7176 338.838 55.103C341.575 53.478 344.503 52.1992 347.555 51.2961C351.592 50.0095 354.913 51.4022 357.239 55.607C359.533 51.3027 361.376 47.4163 363.609 43.7685C368.249 36.2476 372.83 28.7002 377.848 21.4512C381.056 16.8086 384.105 16.6163 388.182 19.6339C390.31 21.2124 390.741 22.8638 389.236 25.2713C384.039 33.6146 378.63 41.8518 373.99 50.5069C369.118 59.6527 365.061 69.2429 360.679 78.6473C360.156 79.6219 359.785 80.6709 359.579 81.7579C359.321 83.8404 359.314 85.956 359.208 88.0518C361.25 87.0238 363.961 86.5065 365.207 84.875C368.727 80.2324 372.167 75.4506 374.666 70.2841C377.941 63.4927 381.679 57.2386 387.711 52.6424C389.037 51.641 391.092 50.5599 392.438 50.9181C395.752 51.8068 398.801 51.2033 402.056 50.8451C409.699 50.0095 414.743 54.6984 415.068 62.4316C415.34 69.0638 413.172 75.0328 410.222 80.8028C409.069 83.0511 407.697 85.1867 405.814 88.41C408.167 87.9523 410.037 88.1049 411.157 87.256C413.269 85.6803 415.113 83.7746 416.619 81.6119C418.787 78.4285 420.497 74.9333 422.399 71.5708C423.771 69.15 424.713 66.8818 423.619 63.831C422.996 62.0867 423.619 59.6195 424.375 57.7294C425.603 54.6741 427.081 51.726 428.796 48.9151C430.692 45.6985 433.211 45.3536 436.552 47.4892C438.931 49.0146 439.203 50.938 437.427 54.1214C436.565 55.6667 435.696 57.2054 434.874 58.764C434.734 59.3505 434.663 59.9515 434.662 60.5547C436.103 59.8902 437.502 59.1394 438.852 58.3064C441.556 56.3896 444.108 54.2607 446.806 52.3772C449.504 50.4936 452.381 49.8503 455.099 52.0323C457.816 54.2143 457.372 57.1258 456.192 59.9246C453.667 65.9334 450.949 71.8626 448.523 77.8979C447.595 80.2584 446.984 82.7317 446.707 85.253C446.389 88.0585 448.211 89.1992 450.684 87.7799C452.324 86.8702 453.749 85.6169 454.86 84.1057C458.108 79.3835 461.283 74.6017 464.14 69.6275C468.051 62.7964 472.651 56.7279 479.844 53.047C480.722 52.5832 481.63 52.1778 482.561 51.8333C488.832 49.6314 491.477 50.4207 495.5 55.8126C496.395 54.8377 497.29 53.9158 498.152 52.9409C499.862 50.9512 501.871 50.0758 504.264 51.6145C506.484 53.0271 507.286 55.1096 506.252 57.6299C504.582 61.7087 502.732 65.7278 501.122 69.8331C499.319 74.4757 497.549 79.1182 496.071 83.8205C495.679 85.0673 496.415 86.6591 496.627 88.0983C498.152 87.7467 500.081 87.8529 501.115 86.9442C503.372 84.8445 505.429 82.5399 507.26 80.06C510.117 76.4123 512.742 72.5855 515.612 68.951C516.182 68.2281 517.415 68.0292 518.343 67.5848C518.562 68.6062 519.178 69.727 518.946 70.629C515.95 82.3282 510.329 92.4755 500.028 99.2138C493.134 103.73 487.181 100.958 482.634 91.3215C482.157 92.2898 481.912 93.5168 481.163 94.18C478.783 96.2824 476.456 98.6567 473.672 100.043C467.819 102.941 462.403 100.355 460.236 94.1667C459.957 93.3642 459.712 92.5418 459.407 91.5934C457.134 93.7157 455.092 95.8778 452.779 97.7216C448.954 100.806 444.566 102.47 439.859 100.182C435.272 97.9537 433.966 93.5499 433.893 88.7814C433.761 81.917 436.73 75.9215 439.322 69.8331C439.786 68.7388 440.337 67.6909 441.158 65.9732C435.59 68.3939 430.93 70.0719 428.531 75.9878C426.131 81.9038 422.3 87.0504 418.608 92.2301C416.745 94.8366 413.968 96.9589 411.203 98.7297C405.801 102.212 401.87 101.694 396.574 97.3303ZM332.667 84.7291C333.329 85.7372 333.992 87.8263 334.947 87.9391C336.578 88.138 338.851 87.6406 339.985 86.5463C346.282 80.4248 350.345 72.8641 352.745 64.4677C353.123 63.1412 352.566 60.4884 351.737 60.1302C350.299 59.5333 347.866 59.6593 346.62 60.5547C338.566 66.3645 334.675 74.7012 332.667 84.7291ZM87.173 84.4771C87.7232 85.4918 88.1209 87.382 89.1616 87.8794C90.2023 88.3768 92.2969 88.0253 93.4039 87.2758C95.2544 86.0854 96.8186 84.5 97.9844 82.6333C101.067 77.175 103.784 71.5177 106.648 65.94C107.715 63.8575 108.511 61.2975 106.27 60.0241C104.891 59.2548 101.975 59.6461 100.629 60.6873C92.9598 66.4839 89.082 74.6216 87.173 84.4771ZM470.537 84.2847C471.1 85.3194 471.525 87.3554 472.645 87.8529C473.765 88.3503 475.913 87.8529 477.152 87.0703C478.836 86.013 480.241 84.5663 481.249 82.8522C484.358 77.2811 487.215 71.5774 490.098 65.8803C491.152 63.8111 491.908 61.198 489.674 59.9578C488.302 59.1951 485.392 59.6461 484.026 60.6807C476.416 66.4242 472.691 74.5354 470.51 84.2847H470.537ZM282.978 84.3908C283.561 85.4056 284.045 87.4218 285.165 87.8927C286.286 88.3635 288.413 87.8064 289.673 87.0305C291.279 86.0481 292.614 84.6803 293.557 83.0511C296.752 77.2811 299.841 71.4448 302.586 65.4559C303.248 63.9504 302.519 61.7883 302.42 59.9312C300.484 60.1037 298.045 59.5797 296.699 60.5613C288.858 66.265 285.159 74.5155 282.951 84.3908H282.978ZM400.133 78.3688C400.73 77.3673 401.539 76.4322 401.89 75.3445C403.388 70.702 404.986 66.013 406 61.2378C406.258 60.0374 404.515 58.4125 403.686 56.9799C402.493 57.9548 400.823 58.6844 400.193 59.9445C397.204 65.8538 397.641 72.0085 400.107 78.3688H400.133ZM390.973 87.6539C390.118 81.0217 389.395 75.371 388.666 69.7469L387.857 69.3623C386.213 73.4344 384.218 77.4204 383.098 81.6318C382.64 83.3827 383.469 86.48 384.795 87.4151C386.207 88.4697 388.918 87.6804 390.946 87.6804L390.973 87.6539ZM166.054 26.3656C157.841 33.5218 153.692 43.2778 149.218 52.8281C157.576 45.8046 162.833 36.7649 166.054 26.3656ZM284.184 26.3656C276.23 33.7075 271.974 43.4502 267.321 52.9409C274.142 48.484 283.382 34.185 284.191 26.412L284.184 26.3656Z" fill="#EFEFEF"/>
<path d="M303.461 118.049C298.582 117.791 293.577 122.572 290.966 129.828C293.206 130.352 295.447 130.79 297.641 131.407C302.128 132.673 303.242 134.723 302.002 139.18C301.91 139.498 301.605 139.942 301.717 140.095C304.926 144.479 301.054 147.423 299.583 150.859C299.377 151.343 299.238 151.854 298.741 153.326C300.643 152.411 301.923 152 302.97 151.257C305.675 149.34 308.22 147.205 310.925 145.288C314.04 143.086 317.407 142.86 319.542 144.711C322.279 147.092 321.769 150.017 320.549 152.921C317.818 159.434 315.008 165.914 312.297 172.44C311.696 173.747 311.345 175.155 311.263 176.592C311.263 177.998 311.859 179.404 312.197 180.81C313.622 180.452 315.677 180.571 316.367 179.656C320.457 174.237 324.818 168.885 327.954 162.916C331.387 156.37 334.934 150.123 340.827 145.54C342.066 144.578 343.975 143.364 345.195 143.689C348.933 144.684 352.486 143.796 356.126 143.616C363.417 143.258 368.011 147.682 368.309 155.044C368.647 163.201 365.552 170.371 361.448 177.189C360.938 178.038 360.394 178.867 359.891 179.722C359.812 179.994 359.776 180.276 359.785 180.558C362.562 181.884 364.789 180.505 366.413 178.615C369.827 174.576 372.903 170.258 376.138 166.067C377.782 163.938 379.452 161.848 381.142 159.746L382.342 160.071C382.461 161.351 382.925 162.724 382.654 163.891C380.002 175.391 374.361 185.061 364.332 191.62C359.029 195.076 355.423 194.466 349.881 190.201C335.802 196.548 332.183 195.401 325.687 183.217C323.148 185.399 320.45 187.82 317.646 190.108C313.669 193.371 309.141 195.308 304.19 192.821C299.377 190.4 297.607 185.572 298.482 180.724C299.603 174.503 301.949 168.501 303.825 162.425C304.3 161.209 304.851 160.024 305.476 158.877C302.32 160.111 299.629 160.973 297.143 162.226C296.209 162.697 295.625 164.024 295.055 165.052C291.887 170.716 289.037 176.579 285.543 182.024C283.55 184.938 281.086 187.499 278.252 189.604C269.257 196.621 262.462 195.135 257.391 185.704C253.01 188.092 248.847 191.09 244.213 192.721C240.87 193.979 237.281 194.447 233.727 194.089C230.174 193.731 226.75 192.557 223.724 190.659C218.938 187.741 216.525 183.317 216.147 177.772C215.113 162.432 225.428 147.264 239.083 144.107C240.911 143.692 242.783 143.501 244.657 143.537C250.656 143.65 254.097 147.669 253.779 153.711C253.281 163.128 241.105 175.484 228.947 173.74C228.371 177.401 230.426 180.372 234.589 181.652C236.964 182.439 239.492 182.657 241.967 182.288C244.442 181.92 246.796 180.975 248.84 179.53C254.143 175.895 257.981 171.167 259.963 164.793C262.449 156.834 265.551 149.042 268.428 141.076C266.267 140.347 263.788 139.75 261.561 138.702C258.412 137.203 257.126 134.199 258.498 131.659C258.909 130.896 260.414 130.365 261.408 130.372C262.913 130.372 264.398 131.082 265.922 131.267C271.166 131.931 275.116 130.949 278.146 125.524C281.216 120.294 285.17 115.638 289.832 111.762C295.268 107.126 302.367 110.648 303.461 118.049ZM294.041 139.829C290.959 140.108 288.573 140.161 286.259 140.612C285.258 140.804 283.932 141.62 283.608 142.496C279.332 152.868 275.063 163.254 271.166 173.773C270.41 175.823 271.258 178.475 271.364 180.843C273.665 179.755 276.793 179.265 278.112 177.454C281.984 172.148 285.146 166.352 288.539 160.714C288.664 160.474 288.74 160.211 288.761 159.941C288.783 159.671 288.75 159.4 288.665 159.142C286.644 154.162 288.718 149.857 290.873 145.6C291.708 143.875 292.709 142.217 294.041 139.829ZM232.792 166.464C238.062 166.531 243.444 161.477 243.749 156.516C243.948 153.379 242.152 151.966 239.202 153.127C234.681 154.905 232.249 158.552 230.585 162.929C229.511 165.642 230.459 166.584 232.792 166.464ZM353.189 171.372C356.503 166.027 358.949 160.635 359.394 154.48C359.428 153.596 359.275 152.714 358.943 151.893C357.968 149.314 356.013 149.068 354.256 151.23C350.902 155.395 350.213 166.093 353.189 171.372ZM344.207 180.439C343.345 173.839 342.603 168.182 341.861 162.532L341.045 162.28C339.428 166.193 337.433 170.013 336.405 174.072C335.921 175.949 336.644 179.092 338.009 180.22C339.375 181.347 342.126 180.439 344.207 180.439Z" fill="#E6E6E6"/>
<path d="M186.405 169.621C189.056 179.457 192.563 188.437 199.662 195.52C203.361 199.214 207.04 199.499 211.468 197.371C212.482 196.886 214.437 196.535 214.868 197.046C215.277 197.59 215.573 198.211 215.74 198.871C215.906 199.532 215.939 200.219 215.836 200.892C214.093 209.143 204.163 213.712 196.407 209.866C189.997 206.682 186.464 200.892 183.581 194.738C181.307 189.87 179.604 184.743 177.469 179.311C176.906 180.405 176.355 181.387 175.885 182.402C171.868 191.024 167.93 199.645 163.834 208.227C162.097 211.875 161.342 212.001 157.729 209.992C152.36 207.014 151.498 204.885 153.957 199.334C165.16 173.977 176.402 148.639 187.684 123.322C188.208 122.135 188.685 120.928 189.215 119.648C180.909 118.931 170.204 128.674 170.403 136.527C170.505 137.617 170.789 138.682 171.245 139.677C172.232 142.217 171.57 143.305 168.779 143.544C164.026 143.948 159.678 139.631 159.625 134.258C159.578 129.284 161.613 124.973 164.609 121.2C168.664 116.018 174.292 112.294 180.644 110.588C191.462 107.455 203.016 108.039 213.463 112.246C225.063 116.836 230.187 127.679 226.223 139.511C221.371 153.996 210.453 162.26 196.5 167.008C193.398 168.116 190.13 168.686 186.405 169.621ZM187.266 156.901C197.992 155.806 209.804 148.564 214.49 140.479C220.489 130.146 215.398 120.583 203.135 119.601C197.872 131.858 192.649 144.18 187.266 156.901Z" fill="#E6E6E6"/>
</g>
<defs>
<clipPath id="clip0_28_155">
<rect width="533" height="222" fill="white" transform="translate(1 0.5)"/>
</clipPath>
</defs>
</svg>
