<svg width="116" height="47" viewBox="0 0 116 47" fill="none" xmlns="http://www.w3.org/2000/svg">
<g clip-path="url(#clip0_23_94)">
<path d="M2.5 2.5V44.5L6.34847 38.8463V8.15366L2.5 2.5Z" fill="#40413F"/>
<path d="M87.4516 8.15366H72.9485V38.8463H87.4516V8.15366Z" fill="#494041"/>
<path d="M87.4515 8.15366V38.8463L91.3 44.5V2.5L87.4515 8.15366Z" fill="#313131"/>
<path d="M69.1 2.5V44.5L72.9484 38.8463V8.15366L69.1 2.5Z" fill="#40413F"/>
<path d="M69.1 2.5L72.9485 8.15366H87.4515L91.3 2.5H69.1Z" fill="#2F2B2B"/>
<path d="M87.4516 38.8463L88.499 40.386C83.0291 40.7809 77.4493 40.386 71.9421 40.3234L72.9485 38.8463H87.4516Z" fill="#6F6F6F"/>
<path d="M88.4989 40.386L91.2944 44.5H69.1L71.9421 40.3233C77.4492 40.386 83.029 40.7809 88.4989 40.386Z" fill="#575956"/>
<path d="M109.651 8.15366H95.1484V38.8463H109.651V8.15366Z" fill="#494041"/>
<path d="M109.651 8.15366V38.8463L113.5 44.5V2.5L109.651 8.15366Z" fill="#313131"/>
<path d="M91.3 2.5V44.5L95.1485 38.8463V8.15366L91.3 2.5Z" fill="#40413F"/>
<path d="M91.3 2.5L95.1485 8.15366H109.652L113.5 2.5H91.3Z" fill="#2F2B2B"/>
<path d="M109.661 38.8463L110.708 40.386C105.238 40.7809 99.6585 40.386 94.1514 40.3234L95.1577 38.8463H109.661Z" fill="#6F6F6F"/>
<path d="M110.699 40.386L113.494 44.5H91.3L94.1421 40.3233C99.6493 40.386 105.229 40.7809 110.699 40.386Z" fill="#575956"/>
<path d="M65.2516 8.15366H50.7485V38.8463H65.2516V8.15366Z" fill="#494041"/>
<path d="M65.2515 8.15366V38.8463L69.0999 44.5V2.5L65.2515 8.15366Z" fill="#313131"/>
<path d="M46.9 2.5V44.5L50.7485 38.8463V8.15366L46.9 2.5Z" fill="#40413F"/>
<path d="M46.9 2.5L50.7485 8.15366H65.2516L69.1 2.5H46.9Z" fill="#2F2B2B"/>
<path d="M65.2515 38.8463L66.2989 40.386C60.829 40.7809 55.2492 40.386 49.7421 40.3234L50.7484 38.8463H65.2515Z" fill="#6F6F6F"/>
<path d="M66.2989 40.386L69.0944 44.5H46.9L49.7421 40.3233C55.2418 40.386 60.8328 40.7809 66.2989 40.386Z" fill="#575956"/>
<path d="M43.0515 8.15366H28.5485V38.8463H43.0515V8.15366Z" fill="#494041"/>
<path d="M43.0515 8.15366V38.8463L46.9 44.5V2.5L43.0515 8.15366Z" fill="#313131"/>
<path d="M24.7 2.5V44.5L28.5484 38.8463V8.15366L24.7 2.5Z" fill="#40413F"/>
<path d="M24.7 2.5L28.5484 8.15366H43.0515L46.9 2.5H24.7Z" fill="#2F2B2B"/>
<path d="M43.0516 38.8463L44.0989 40.386C38.6291 40.7809 33.0493 40.386 27.5421 40.3234L28.5485 38.8463H43.0516Z" fill="#6F6F6F"/>
<path d="M44.0989 40.386L46.8944 44.5H24.7L27.542 40.3233C33.0492 40.386 38.629 40.7809 44.0989 40.386Z" fill="#575956"/>
<path d="M20.8516 8.15366H6.34851V38.8463H20.8516V8.15366Z" fill="#494041"/>
<path d="M20.8516 8.15366V38.8463L24.7 44.5V2.5L20.8516 8.15366Z" fill="#313131"/>
<path d="M2.5 2.5L6.34847 8.15366H20.8515L24.7 2.5H2.5Z" fill="#2F2B2B"/>
<path d="M20.8515 38.8463L21.8989 40.386C16.429 40.7809 10.8492 40.386 5.34204 40.3234L6.34842 38.8463H20.8515Z" fill="#6F6F6F"/>
<path d="M21.8989 40.386L24.6944 44.5H2.5L5.34209 40.3233C10.8492 40.386 16.429 40.7809 21.8989 40.386Z" fill="#575956"/>
</g>
<rect x="1.5" y="1.5" width="113" height="44" stroke="#2F2B2B" stroke-width="2" stroke-linejoin="round"/>
<defs>
<clipPath id="clip0_23_94">
<rect x="2.5" y="2.5" width="111" height="42" fill="white"/>
</clipPath>
</defs>
</svg>
